<svg preserveAspectRatio="none" overflow="visible" style="display: block;" width="472.219" height="434.393" viewBox="0 0 472.219 434.393" fill="none" xmlns="http://www.w3.org/2000/svg">
<path id="Vector" d="M343.16 51.111C343.148 41.4757 342.371 32.1027 338.387 23.1467C335.052 16.8226 322.617 4.78603 308.629 1.11703C276.382 -7.34169 260.846 34.1659 247.499 60.6845C242.551 70.5151 237.752 86.545 234.556 97.3169C229.754 113.502 230.042 133.255 227.425 149.87C227.275 151.051 225.75 152.711 224.6 153.237C218.747 153.287 213.563 141.655 211.533 136.853C210.002 133.23 207.518 129.804 206.15 126.068C197.236 99.717 185.543 80.2389 163.837 54.2746C149.34 39.5262 134.262 31.4168 126.18 28.8235C116.007 25.7938 101.793 25.3754 92.8577 31.8758C64.9391 52.1854 76.6562 90.1741 91.2026 114.771C92.4252 116.854 94.2964 119.082 95.464 121.137C105.916 139.533 122.329 151.373 139.081 163.457L139.508 163.764C144.677 167.493 152.59 174.303 157.152 178.797C160.214 181.813 164.789 187.92 165.496 192.102C165.604 193.172 164.853 195.451 163.753 195.782C154.317 198.631 142.773 198.541 132.872 198.316C115.913 197.931 99.8043 198.778 82.9583 200.008C48.0049 202.56 -8.15683 224.198 0.993512 268.558C8.34499 309.878 64.5722 309.817 95.3788 298.218C97.4944 297.421 99.7349 296.16 101.789 295.174C105.254 293.509 108.811 292.065 112.218 290.292C133.901 279.006 150.604 260.095 173.91 252.031C175.955 251.323 183.514 247.285 184.338 251.179C186.309 260.493 180.264 274.001 174.094 279.412C174.094 279.412 165.62 285.963 145.915 313.859C126.21 341.755 103.581 372.21 115.193 408.23C116.626 412.674 118.913 416.229 121.852 419.776C126.066 425.088 129.647 427.278 135.842 430.128L137.938 431.093C152.832 435.854 162.637 435.828 176.629 428.605C184.983 424.288 194.545 414.717 199.779 406.865C202.344 403.016 204.271 398.949 206.525 394.938C207.876 392.533 209.564 390.32 210.885 387.9C213.32 383.444 215.25 377.808 216.786 372.964C221.86 356.951 225.181 340.469 228.927 324.112C232.406 308.924 235.722 290.269 244.02 276.948C245.411 278.743 246.891 280.56 247.913 282.595C250.993 288.726 252.266 295.145 253.987 301.717C256.526 311.413 258.89 321.352 262.12 330.833C263.512 334.92 265.55 338.939 267.306 342.886C273.053 355.805 280.117 369.522 289.391 380.345C292.199 383.621 295.559 386.577 298.646 389.596C301.113 392.009 303.447 394.715 306.137 396.879C308.883 399.088 312.098 400.766 315.031 402.718C322.368 407.6 329.793 412.078 338.746 413.213C350.002 414.646 361.881 412.538 370.932 405.406C379.908 398.327 384.757 387.689 386.051 376.481C386.96 368.595 385.994 356.875 383.781 349.324C382.676 345.559 380.651 341.838 379.003 338.287C376.031 331.879 373.35 325.333 369.541 319.339C367.24 315.716 364.442 312.442 361.938 308.964C360.203 306.551 358.751 303.928 356.903 301.596C352.397 295.909 343.746 285.322 338.685 280.678C336.417 278.597 333.594 277.102 331.174 275.2C329.555 273.928 328.138 272.252 326.47 271.095C324.589 269.789 322.37 268.976 320.588 267.53C315.248 263.198 303.929 251.567 304.909 244.291C305.087 242.97 305.441 241.945 306.54 241.151C314.516 235.39 328.929 235.933 338.371 237.092C343.872 237.767 349.35 239.027 354.863 239.495C363.02 240.187 371.656 240.136 379.832 239.657C386.903 239.242 393.578 237.382 400.461 235.894C403.753 235.183 407.143 234.946 410.421 234.202C413.509 233.5 416.507 232.205 419.532 231.267C422.017 230.497 424.596 229.955 427.036 229.042C435.714 225.792 445.519 220.364 452.764 214.625C458.334 210.215 466.412 201.215 469.319 194.819C470.586 192.036 471.246 188.912 471.755 185.906C472.834 179.52 472.17 165.522 468.271 160.049C466.811 157.998 464.941 156.11 463.251 154.247C453.412 143.413 444.271 141.445 430.325 139.197C426.165 138.526 421.911 138.327 417.722 137.859C414.863 137.539 411.899 136.937 409.025 136.93C404.967 136.919 400.71 137.864 396.693 138.384C393.16 138.841 389.566 138.967 386.051 139.548C376.363 141.149 365.754 144.22 356.824 148.323C351.993 150.544 344.502 154.755 339.982 157.557C329.958 163.77 308.754 179.256 296.783 177.616C294.694 177.329 292.612 176.794 291.077 175.271C290.152 173.312 290.795 171.223 291.498 169.288C293.723 163.168 297.839 159.235 301.382 154.021C302.507 152.366 302.898 150.282 304.005 148.611C306.619 144.668 309.691 140.972 312.32 137C315.756 131.81 318.815 126.522 321.903 121.135C323.628 118.125 325.747 115.371 327.391 112.304C334.444 99.1512 340.814 81.3221 342.608 66.4963C343.225 61.3978 343.166 56.2386 343.16 51.111Z" fill="#B501A6"/>
</svg>
